# xmcd
#
# Track frame offsets:
#	150
#	20262
#	39216
#	57513
#	72233
#	88442
#	105832
#	124353
#	137924
#	151956
#	169732
#	186721
#	197632
#	217755
#	233353
#	248271
#
# Disc length: 3557 seconds
#
# Revision: 0
# Processed by: cddbd v1.5.2PL0 Copyright (c) Steve Scherf et al.
# Submitted via: EasyCDDAExtractor 11.0.0.1
#
DISCID=d30de310
DTITLE=ΤΟΛΙΑΣ ΣΑΚΗΣ - ΕΓΩ ΘΑ ΠΑΙΞΩ
DYEAR=1999
DGENRE=ΛΑΪΚΑ
TTITLE0=Τόλιας Σάκης_01 Σ' αγαπώ
TTITLE1=Τόλιας Σάκης_02 Εγώ θα παίξω
TTITLE2=Τόλιας Σάκης_03 Οι παράνομες καρδιές
TTITLE3=Τόλιας Σάκης_04 Έμορφον πουλίν
TTITLE4=Τόλιας Σάκης_05 Όνειρα
TTITLE5=Τόλιας Σάκης_06 Σαν τη φλόγα
TTITLE6=Τόλιας Σάκης_07 Σε άλλο σώμα
TTITLE7=Τόλιας Σάκης_08 Τι κρίμα
TTITLE8=Τόλιας Σάκης_09 Ρώμησα
TTITLE9=Τόλιας Σάκης_10 Απογοήτευση
TTITLE10=Τόλιας Σάκης_11 Ξέχασες
TTITLE11=Τόλιας Σάκης_12 Ανοιχτή πληγή μου
TTITLE12=Τόλιας Σάκης_13 Αλάνα
TTITLE13=Τόλιας Σάκης_14 Είναι αδύνατον
TTITLE14=Τόλιας Σάκης_15 Σαν το ηρεμιστικό
TTITLE15=Τόλιας Σάκης_16 Τι μας χώρισες καρδιά μου
EXTD=
EXTT0=
EXTT1=
EXTT2=
EXTT3=
EXTT4=
EXTT5=
EXTT6=
EXTT7=
EXTT8=
EXTT9=
EXTT10=
EXTT11=
EXTT12=
EXTT13=
EXTT14=
EXTT15=
PLAYORDER=
